<svg xmlns="http://www.w3.org/2000/svg" width="168" height="69" viewBox="0 0 168 69"><g fill="none"><g fill="#181A1C" transform="translate(1.621 58.656)"><path d="M6.99511719 6.20166016 8.2265625 6.51269531C7.96842448 7.52408854 7.50398763 8.29532878 6.83325195 8.82641602 6.16251628 9.35750326 5.34261068 9.62304688 4.37353516 9.62304688 3.37060547 9.62304688 2.55493164 9.41886393 1.92651367 9.01049805 1.2980957 8.60213216.819905599 8.01074219.491943359 7.23632812.16398112 6.46191406 0 5.63037109 0 4.74169922 0 3.7726237.185139974 2.92732747.555419922 2.20581055.92569987 1.48429362 1.45255534.936279297 2.13598633.561767578 2.81941732.187255859 3.57161458 0 4.39257812 0 5.32356771 0 6.10644531.236979167 6.74121094.7109375 7.37597656 1.18489583 7.81819661 1.85139974 8.06787109 2.71044922L6.85546875 2.99609375C6.63964844 2.31901042 6.3264974 1.82600911 5.91601562 1.51708984 5.50553385 1.20817057 4.98925781 1.05371094 4.3671875 1.05371094 3.65201823 1.05371094 3.0542806 1.22509766 2.57397461 1.56787109 2.09366862 1.91064453 1.7561849 2.37084961 1.56152344 2.94848633 1.36686198 3.52612305 1.26953125 4.12174479 1.26953125 4.73535156 1.26953125 5.52669271 1.38484701 6.2175293 1.61547852 6.80786133 1.84611003 7.39819336 2.2047526 7.83935547 2.69140625 8.13134766 3.1780599 8.42333984 3.70491536 8.56933594 4.27197266 8.56933594 4.9617513 8.56933594 5.54573568 8.37044271 6.02392578 7.97265625 6.50211589 7.57486979 6.82584635 6.98453776 6.99511719 6.20166016ZM24.5293623 9.46435547 24.5293623.158691406 28.6553389.158691406C29.484766.158691406 30.1152998.24226888 30.5469404.409423828 30.9785811.576578776 31.3234704.871744792 31.5816084 1.29492188 31.8397464 1.71809896 31.9688154 2.18570964 31.9688154 2.69775391 31.9688154 3.35791016 31.755111 3.91438802 31.3277022 4.3671875 30.9002933 4.81998698 30.2401371 5.1077474 29.3472334 5.23046875 29.6730798 5.38704427 29.9206384 5.54150391 30.0899092 5.69384766 30.4496097 6.02392578 30.7902673 6.43652344 31.1118818 6.93164062L32.7305342 9.46435547 31.1817061 9.46435547 29.9502607 7.52832031C29.5905602 6.96972656 29.2943363 6.54231771 29.0615889 6.24609375 28.8288415 5.94986979 28.6204268 5.74251302 28.4363447 5.62402344 28.2522627 5.50553385 28.0650068 5.42301432 27.8745772 5.37646484 27.7349287 5.34684245 27.5064131 5.33203125 27.1890303 5.33203125L25.7608076 5.33203125 25.7608076 9.46435547 24.5293623 9.46435547ZM25.7608076 4.265625 28.4077803 4.265625C28.9706058 4.265625 29.41071 4.20743815 29.7280928 4.09106445 30.0454756 3.97469076 30.2866865 3.78849284 30.4517256 3.5324707 30.6167647 3.27644857 30.6992842 2.99820964 30.6992842 2.69775391 30.6992842 2.25764974 30.5395348 1.89583333 30.2200361 1.61230469 29.9005374 1.32877604 29.3958988 1.18701172 28.7061201 1.18701172L25.7608076 1.18701172 25.7608076 4.265625Z"/><polygon points="48.691 9.464 48.691 .159 55.419 .159 55.419 1.257 49.922 1.257 49.922 4.107 55.07 4.107 55.07 5.199 49.922 5.199 49.922 8.366 55.635 8.366 55.635 9.464"/><path d="M71.0807627,9.46435547 L74.6544932,0.158691406 L75.9811533,0.158691406 L79.7897471,9.46435547 L78.3869151,9.46435547 L77.3014658,6.64599609 L73.4103526,6.64599609 L72.3883799,9.46435547 L71.0807627,9.46435547 Z M73.7658213,5.64306641 L76.9206065,5.64306641 L75.9494151,3.06591797 C75.6531911,2.28304036 75.433139,1.6398112 75.2892588,1.13623047 C75.1707692,1.73291016 75.0036143,2.32535807 74.787794,2.91357422 L73.7658213,5.64306641 Z"/><polygon points="96.943 9.464 96.943 1.257 93.877 1.257 93.877 .159 101.253 .159 101.253 1.257 98.175 1.257 98.175 9.464"/><polygon points="117.493 9.464 117.493 .159 118.724 .159 118.724 9.464"/><path d="M138.321193,9.46435547 L134.715725,0.158691406 L136.048732,0.158691406 L138.467189,6.91894531 C138.661851,7.46061198 138.824774,7.96842448 138.955959,8.44238281 C139.099839,7.93457031 139.266994,7.42675781 139.457424,6.91894531 L141.971096,0.158691406 L143.227932,0.158691406 L139.584377,9.46435547 L138.321193,9.46435547 Z"/><polygon points="159.124 9.464 159.124 .159 165.853 .159 165.853 1.257 160.356 1.257 160.356 4.107 165.504 4.107 165.504 5.199 160.356 5.199 160.356 8.366 166.069 8.366 166.069 9.464"/></g><polygon fill="#181A1C" points="0 54.12 0 .66 7.59 .66 19.47 28.512 19.47 .66 28.446 .66 28.446 54.12 21.186 54.12 9.306 24.552 9.306 54.12"/><path fill="#181A1C" d="M50.1629392 54.846C46.2469392 54.846 43.1449392 54.142 40.8569392 52.734 38.5689392 51.326 36.9299392 49.313 35.9399392 46.695 34.9499392 44.077 34.4549392 40.942 34.4549392 37.29L34.4549392 17.358C34.4549392 13.706 34.9499392 10.582 35.9399392 7.986 36.9299392 5.39 38.5689392 3.41 40.8569392 2.046 43.1449392.682 46.2469392 0 50.1629392 0 54.1229392 0 57.2579392.693 59.5679392 2.079 61.8779392 3.465 63.5279392 5.445 64.5179392 8.019 65.5079392 10.593 66.0029392 13.706 66.0029392 17.358L66.0029392 37.29C66.0029392 40.942 65.5079392 44.077 64.5179392 46.695 63.5279392 49.313 61.8779392 51.326 59.5679392 52.734 57.2579392 54.142 54.1229392 54.846 50.1629392 54.846ZM50.1629392 46.992C51.5709392 46.992 52.6049392 46.673 53.2649392 46.035 53.9249392 45.397 54.3649392 44.539 54.5849392 43.461 54.8049392 42.383 54.9149392 41.228 54.9149392 39.996L54.9149392 14.718C54.9149392 13.486 54.8049392 12.342 54.5849392 11.286 54.3649392 10.23 53.9249392 9.383 53.2649392 8.745 52.6049392 8.107 51.5709392 7.788 50.1629392 7.788 48.8429392 7.788 47.8529392 8.107 47.1929392 8.745 46.5329392 9.383 46.0929392 10.23 45.8729392 11.286 45.6529392 12.342 45.5429392 13.486 45.5429392 14.718L45.5429392 39.996C45.5429392 41.228 45.6419392 42.383 45.8399392 43.461 46.0379392 44.539 46.4669392 45.397 47.1269392 46.035 47.7869392 46.673 48.7989392 46.992 50.1629392 46.992ZM71.9471675 54.12 71.9471675.66 85.8071675.66C89.4151675.66 92.5061675 1.067 95.0801675 1.881 97.6541675 2.695 99.6341675 4.136 101.020168 6.204 102.406168 8.272 103.099168 11.132 103.099168 14.784 103.099168 16.984 102.912168 18.931 102.538168 20.625 102.164168 22.319 101.504168 23.793 100.558168 25.047 99.6121675 26.301 98.2811675 27.302 96.5651675 28.05L103.957168 54.12 92.8031675 54.12 86.6651675 29.898 82.8371675 29.898 82.8371675 54.12 71.9471675 54.12ZM82.8371675 23.43 86.0051675 23.43C87.7651675 23.43 89.1511675 23.144 90.1631675 22.572 91.1751675 22 91.8901675 21.131 92.3081675 19.965 92.7261675 18.799 92.9351675 17.358 92.9351675 15.642 92.9351675 13.178 92.4841675 11.297 91.5821675 9.999 90.6801675 8.701 88.9971675 8.052 86.5331675 8.052L82.8371675 8.052 82.8371675 23.43Z"/><polygon fill="#D71818" points="113.714 54.12 113.714 8.778 105.464 8.778 105.464 .66 132.788 .66 132.788 8.778 124.67 8.778 124.67 54.12"/><polygon fill="#D71818" points="136.435 54.12 136.435 .66 147.325 .66 147.325 22.638 156.763 22.638 156.763 .66 167.653 .66 167.653 54.12 156.763 54.12 156.763 30.426 147.325 30.426 147.325 54.12"/></g></svg>